<svg xmlns="http://www.w3.org/2000/svg" viewBox="0 0 146.73 83.61"><defs><style>.cls-1{fill:#fff;}.cls-2{fill:#5f6638;}.cls-3{fill:#cf8a00;}.cls-4{fill:#6c3b5d;}</style></defs><title>AOD_Circles</title><g id="Layer_2" data-name="Layer 2"><g id="Layer_1-2" data-name="Layer 1"><path class="cls-1" d="M106.15,0A40.57,40.57,0,0,0,69.54,23a32.06,32.06,0,0,0-13.08-2.81c-.73,0-1.44.06-2.15.11A28.24,28.24,0,0,0,0,30.86,28,28,0,0,0,25.19,58.62a32.07,32.07,0,0,0,56,13.3,40.61,40.61,0,0,0,65.5-31.7A40.4,40.4,0,0,0,106.15,0Z"/><path class="cls-2" d="M5.94,30.86a22.28,22.28,0,0,1,42.29-9.61A31.78,31.78,0,0,0,24.45,51.88c0,.24,0,.47,0,.7A22.14,22.14,0,0,1,5.94,30.86Z"/><path class="cls-3" d="M56.46,77.72A25.84,25.84,0,1,1,67.35,28.44,39.86,39.86,0,0,0,76.81,68,26.09,26.09,0,0,1,56.46,77.72Z"/><path class="cls-4" d="M106.15,74.56a34.34,34.34,0,1,1,34.64-34.34A34.53,34.53,0,0,1,106.15,74.56Z"/></g></g></svg>